<?xml version="1.0" encoding="utf-8"?>
<!-- Generator: Adobe Illustrator 23.0.6, SVG Export Plug-In . SVG Version: 6.00 Build 0)  -->
<svg version="1.1" id="Layer_1" xmlns="http://www.w3.org/2000/svg" xmlns:xlink="http://www.w3.org/1999/xlink" x="0px" y="0px"
	 viewBox="0 0 64 80" style="enable-background:new 0 0 64 80;" xml:space="preserve">
<title>high ranking</title>
<g>
	<path d="M18.7,49H8c-0.6,0-1-0.4-1-1v-9.3c0-0.6,0.4-1,1-1h10.7c0.6,0,1,0.4,1,1V48C19.7,48.6,19.2,49,18.7,49z M9,47h8.7v-7.3H9
		V47z"/>
	<path d="M37.3,49H26.7c-0.6,0-1-0.4-1-1V29.3c0-0.6,0.4-1,1-1h10.7c0.6,0,1,0.4,1,1V48C38.3,48.6,37.9,49,37.3,49z M27.7,47h8.7
		V30.3h-8.7L27.7,47z"/>
	<path d="M56,49H45.3c-0.6,0-1-0.4-1-1V20c0-0.6,0.4-1,1-1H56c0.6,0,1,0.4,1,1v28C57,48.6,56.6,49,56,49z M46.3,47H55V21h-8.7V47z"
		/>
	<path d="M12.8,30.2c-0.6,0-1-0.5-1-1c0-0.4,0.2-0.7,0.5-0.9L50.5,7.1C51,6.9,51.6,7,51.9,7.5s0.1,1.1-0.4,1.4L13.3,30.1
		C13.2,30.2,13,30.2,12.8,30.2z"/>
	<path d="M49.3,15c-0.1,0-0.2,0-0.3,0c-0.5-0.1-0.8-0.7-0.7-1.2c0,0,0,0,0,0l1.4-5l-5-1.4c-0.5-0.2-0.8-0.7-0.7-1.2s0.7-0.8,1.2-0.7
		l6,1.6c0.5,0.1,0.9,0.7,0.7,1.2c0,0,0,0,0,0.1l-1.7,5.9C50.2,14.7,49.8,15,49.3,15z"/>
	<path d="M60,49H4c-0.6,0-1-0.4-1-1s0.4-1,1-1h56c0.6,0,1,0.4,1,1S60.6,49,60,49z"/>
</g>
</svg>
