<?xml version="1.0" encoding="utf-8"?>
<!-- Generator: Adobe Illustrator 23.0.6, SVG Export Plug-In . SVG Version: 6.00 Build 0)  -->
<svg version="1.1" id="Layer_1" xmlns="http://www.w3.org/2000/svg" xmlns:xlink="http://www.w3.org/1999/xlink" x="0px" y="0px"
	 viewBox="0 0 64 80" style="enable-background:new 0 0 64 80;" xml:space="preserve">
<title>Many People</title>
<g>
	<path d="M22.7,44.9c-0.6,0-1-0.4-1-1c0-1.3-0.3-2.5-1-3.6c-1.3-2.1-3.5-3.4-6-3.4h-1.3c-0.6,0-1-0.4-1-1s0.4-1,1-1
		c2.7,0,4.8-2.2,4.8-4.9c0-1.6-0.7-3-2-3.9c-0.5-0.3-0.6-0.9-0.2-1.4c0.1-0.1,0.1-0.2,0.2-0.2c1.5-1.1,3.3-1.6,5.2-1.6H24
		c1.8,0,3.6,0.6,5.2,1.6c0.5,0.3,0.6,0.9,0.2,1.4c-0.1,0.1-0.1,0.2-0.2,0.2c-2.2,1.6-2.6,4.6-1.1,6.7c0.9,1.2,2.3,2,3.8,2
		c0.6,0,1,0.4,1,1s-0.4,1-1,1h-1.3c-2.5,0-4.7,1.3-6,3.4c-0.6,1.1-1,2.3-1,3.6C23.7,44.4,23.3,44.8,22.7,44.9
		C22.7,44.9,22.7,44.9,22.7,44.9z M17.6,35.4c2,0.7,3.7,2.1,4.8,3.9l0.3,0.5c0.1-0.2,0.2-0.3,0.3-0.5c1.1-1.8,2.8-3.2,4.8-3.9
		c-2.9-2.3-3.4-6.6-1.1-9.6c0.1-0.1,0.2-0.2,0.2-0.3C26,25.1,25,24.9,24,24.9h-2.7c-1,0-2,0.2-2.9,0.6c2.5,2.8,2.3,7.1-0.5,9.6
		C17.8,35.2,17.7,35.3,17.6,35.4z"/>
	<path d="M41.3,44.9c-0.6,0-1-0.4-1-1c0-1.3-0.4-2.5-1-3.6c-1.3-2.1-3.5-3.4-6-3.4h-1.3c-0.6,0-1-0.4-1-1s0.4-1,1-1
		c2.7,0,4.8-2.2,4.8-4.9c0-1.5-0.8-3-2-3.8c-0.5-0.3-0.6-0.9-0.2-1.4c0.1-0.1,0.1-0.2,0.2-0.2c1.5-1.1,3.3-1.6,5.2-1.6h2.7
		c1.8,0,3.7,0.6,5.2,1.6c0.5,0.3,0.6,0.9,0.2,1.4c-0.1,0.1-0.1,0.2-0.2,0.2c-1.3,0.9-2,2.4-2,3.9c0,2.6,2.1,4.8,4.8,4.8
		c0.6,0,1,0.4,1,1s-0.4,1-1,1h-1.3c-2.5,0-4.7,1.3-6,3.4c-0.7,1.1-1,2.3-1,3.6C42.3,44.4,41.9,44.9,41.3,44.9z M36.3,35.4
		c2,0.7,3.7,2.1,4.8,3.9c0.1,0.2,0.2,0.3,0.3,0.5c0.1-0.2,0.2-0.3,0.3-0.5c1.1-1.8,2.8-3.2,4.8-3.9c-2.9-2.3-3.4-6.6-1.1-9.6
		c0.1-0.1,0.2-0.2,0.3-0.3c-0.9-0.4-1.9-0.6-2.9-0.6H40c-1,0-2,0.2-2.9,0.6c2.5,2.8,2.3,7.1-0.5,9.6C36.5,35.2,36.4,35.3,36.3,35.4z
		"/>
	<path d="M22.6,24.9c-3.8,0-6.8-3.1-6.8-6.9s3.1-6.8,6.9-6.8c3.8,0,6.8,3.1,6.8,6.9c0,3.7-3,6.7-6.8,6.8H22.6z M22.7,13.2
		c-2.7,0-4.8,2.1-4.9,4.8c0,2.7,2.1,4.8,4.8,4.9h0.1c2.7,0,4.8-2.2,4.8-4.9C27.5,15.3,25.3,13.2,22.7,13.2z"/>
	<path d="M41.3,24.9c-3.8,0-6.8-3.1-6.8-6.9c0-3.8,3.1-6.8,6.9-6.8c3.8,0,6.8,3.1,6.8,6.9c0,3.7-3,6.7-6.8,6.8H41.3z M41.3,13.2
		c-2.7,0-4.8,2.2-4.8,4.8c0,2.7,2.2,4.8,4.8,4.8h0.1c2.7,0,4.8-2.2,4.8-4.9C46.2,15.3,44,13.2,41.3,13.2L41.3,13.2z"/>
	<path d="M41.3,52.8H22.7c-0.6,0-1-0.4-1-1v-7.9c0-1.6,0.4-3.2,1.3-4.6c1.6-2.7,4.6-4.4,7.7-4.4h2.7c3.2,0,6.1,1.7,7.7,4.4
		c0.8,1.4,1.3,3,1.3,4.6v7.9C42.3,52.3,41.9,52.8,41.3,52.8z M23.7,50.8h16.7v-6.9c0-1.3-0.4-2.5-1-3.6c-1.3-2.1-3.5-3.4-6-3.4h-2.7
		c-2.5,0-4.7,1.3-6,3.4c-0.6,1.1-1,2.3-1,3.6L23.7,50.8z"/>
	<path d="M31.9,36.9c-3.8,0-6.8-3.1-6.8-6.9s3.1-6.8,6.9-6.8s6.8,3.1,6.8,6.9c0,3.7-3,6.7-6.8,6.8H31.9z M32,25.2
		c-1,0-2,0.3-2.8,0.9c-2.2,1.5-2.7,4.6-1.1,6.7c0.9,1.3,2.3,2,3.9,2h0.1c2.7,0,4.8-2.2,4.8-4.9C36.8,27.3,34.7,25.2,32,25.2z"/>
	<path d="M22.7,52.8H4c-0.6,0-1-0.4-1-1v-7.9c0-5,4-9,9-9h2.7c3.2,0,6.1,1.7,7.7,4.4c0.8,1.4,1.3,3,1.3,4.6v7.9
		C23.7,52.3,23.2,52.8,22.7,52.8z M5,50.8h16.7v-6.9c0-1.3-0.3-2.5-1-3.6c-1.3-2.1-3.5-3.4-6-3.4H12c-3.9,0-7,3.1-7,7V50.8z"/>
	<path d="M13.3,36.9c-3.8,0-6.8-3.1-6.8-6.9s3.1-6.8,6.9-6.8c1.4,0,2.8,0.5,4,1.3c3.1,2.2,3.7,6.5,1.5,9.5c-1.3,1.8-3.3,2.8-5.5,2.8
		H13.3z M13.3,25.2c-2.7,0-4.8,2.1-4.9,4.8s2.1,4.8,4.8,4.9h0.1c2.7,0,4.8-2.2,4.8-4.9C18.2,27.3,16,25.2,13.3,25.2L13.3,25.2z"/>
	<path d="M60,52.8H41.3c-0.6,0-1-0.4-1-1v-7.9c0-1.6,0.4-3.2,1.3-4.6c1.6-2.7,4.6-4.4,7.7-4.4H52c5,0,9,4,9,9v7.9
		C61,52.3,60.6,52.8,60,52.8z M42.3,50.8H59v-6.9c0-3.9-3.1-7-7-7h-2.7c-2.5,0-4.7,1.3-6,3.4c-0.7,1.1-1,2.3-1,3.6V50.8z"/>
	<path d="M50.6,36.9c-3.8,0-6.8-3.1-6.8-6.9c0-2.2,1.1-4.2,2.8-5.5c3.1-2.2,7.3-1.5,9.5,1.5c0.8,1.2,1.3,2.5,1.3,4
		c0,3.7-3,6.8-6.8,6.8L50.6,36.9z M50.7,25.2c-2.7,0-4.8,2.1-4.8,4.8c0,2.6,2.1,4.8,4.8,4.8h0.1c2.7,0,4.8-2.2,4.8-4.9
		S53.3,25.2,50.7,25.2L50.7,25.2z"/>
</g>
</svg>
