<svg xmlns="http://www.w3.org/2000/svg" viewBox="0 0 512 512" ><title>simple-icon-original-youtube</title><path d="M402.4,198.83c-1.26-9.48-4.29-18.93-7.86-27.85-5-12.69-14.2-20.83-28.73-21.39-9-.36-17.92-1.67-26.93-1.7q-86-.22-172.07,0a304.34,304.34,0,0,0-32.19,2.34c-9.52,1-17.37,5.77-21.28,14.62-4.16,9.44-8.65,19.18-10.26,29.22A376.7,376.7,0,0,0,102,308.44c1.66,11.35,5.43,22.6,9.88,33.24a27.25,27.25,0,0,0,22.17,17,246.58,246.58,0,0,0,24.75,1.93c31.76.78,163.9.36,163.9.36s1.61,0,36.7-1.17c21.64-.8,31.9-8.94,38.45-29.65a88.52,88.52,0,0,0,2.93-11.24C408,279,407.75,238.91,402.4,198.83ZM222.05,310.15V198.48l86.46,56Z" style="fill:#ed2a24;fill-rule:evenodd"/></svg>