<svg id="icon" xmlns="http://www.w3.org/2000/svg" xmlns:xlink="http://www.w3.org/1999/xlink" viewBox="0 0 512 512"><defs><radialGradient id="a" cx="68.13" cy="579.09" r="690.07" gradientTransform="matrix(0.65, -0.76, 0.61, 0.53, -332.34, 323.41)" gradientUnits="userSpaceOnUse"><stop offset="0.06" stop-color="#f6eb0c"/><stop offset="0.71" stop-color="#ec257a"/><stop offset="1" stop-color="#3854a4"/></radialGradient><radialGradient id="b" cx="125.48" cy="445.45" fx="18.087659885398793" fy="475.6315741187627" r="541.86" gradientTransform="matrix(0.65, -0.76, 0.61, 0.53, -230.32, 304.09)" xlink:href="#a"/><radialGradient id="c" cx="135.42" cy="429.61" fx="18.14230420939994" fy="461.6483699164351" r="519.4" gradientTransform="matrix(0.65, -0.76, 0.61, 0.53, -217.14, 304.18)" xlink:href="#a"/></defs><path d="M405.49,182.48c-1.32-41.08-32-65.48-58.76-72.44-3.06-.8-14.56-4.39-26.09-4.37l-.24,0H194.73l-.24,0c-8.7,0-18.19,2.48-27,4.91-33.45,9.29-59.85,39.67-59.83,81.88,0,.08,0,.16,0,.24V318.36c0,.09,0,.17,0,.26,0,58.75,43.37,84.19,77.46,85,48.34,1.08,96.76,1.36,145.09-.08a77.62,77.62,0,0,0,75.26-75.19Q407.7,255.45,405.49,182.48Zm-28,146.71c-3.68,29.89-23.66,47.05-54,47.59q-65.84,1.15-131.74,0c-33.07-.62-54.88-22.51-55.45-55.55q-1.12-65.84,0-131.72c.62-33,22.63-54.73,55.69-55.28q65.46-1.08,131,0c33.37.52,54.63,22.46,56.06,55.88C379.47,201.08,380.48,304.76,377.48,329.19Z" style="fill:url(#a)"/><path d="M257.58,178.3a77.3,77.3,0,0,0-77.25,77.16c-.12,42.48,34.47,77.07,77.16,77.14a77.15,77.15,0,0,0,.09-154.3Zm-.32,126.79c-27.69,0-49.42-22.19-49.3-50.23.12-27.24,22.24-49,49.83-48.93s49.47,22.19,49.33,50.2C307,283.36,284.82,305.15,257.26,305.09Z" style="fill-rule:evenodd;fill:url(#b)"/><path d="M355.66,175.35a18.48,18.48,0,0,1-17.8,18.49c-9.87.24-18.77-8.57-18.67-18.48a18.41,18.41,0,0,1,18.29-18A18.12,18.12,0,0,1,355.66,175.35Z" style="fill-rule:evenodd;fill:url(#c)"/></svg>