<?xml version="1.0" encoding="UTF-8"?>
<svg width="60.071" height="60.071" version="1.1" viewBox="0 0 60.071 60.071" xmlns="http://www.w3.org/2000/svg" xmlns:cc="http://creativecommons.org/ns#" xmlns:dc="http://purl.org/dc/elements/1.1/" xmlns:rdf="http://www.w3.org/1999/02/22-rdf-syntax-ns#">
 <metadata>
  <rdf:RDF>
   <cc:Work rdf:about="">
    <dc:format>image/svg+xml</dc:format>
    <dc:type rdf:resource="http://purl.org/dc/dcmitype/StillImage"/>
    <dc:title/>
   </cc:Work>
  </rdf:RDF>
 </metadata>
 <g transform="translate(-1.9281 -1.9281)">
  <path d="m50 42.586-1 1-1.834-1.834a25.036 25.036 0 1 0-5.414 5.414l1.834 1.834-1 1 10.464 10.464a5.2425 5.2425 0 1 0 7.414-7.414zm-46-15.586a23 23 0 1 1 23 23 23.026 23.026 0 0 1-23-23zm39.324 18.91a25.053 25.053 0 0 0 2.586-2.586l1.676 1.676-2.586 2.586zm13.433 14.09a3.221 3.221 0 0 1-2.293-0.95l-9.05-9.05 4.586-4.586 9.05 9.05a3.243 3.243 0 0 1-2.293 5.536z"/>
  <path d="m27 6a21 21 0 1 0 21 21 21.023 21.023 0 0 0-21-21zm0 40a19 19 0 1 1 19-19 19.021 19.021 0 0 1-19 19z"/>
  <path d="m40 31v-13a3 3 0 0 0-3-3h-20a3 3 0 0 0-3 3v13h-2v3a3 3 0 0 0 3 3h24a3 3 0 0 0 3-3v-3zm-24-13a1 1 0 0 1 1-1h20a1 1 0 0 1 1 1v13h-22zm24 16a1 1 0 0 1-1 1h-24a1 1 0 0 1-1-1v-1h26z"/>
  <polygon points="28 25.586 24 21.586 18.293 27.293 19.707 28.707 24 24.414 28 28.414 34 22.414 34 25 36 25 36 19 30 19 30 21 32.586 21"/>
 </g>
</svg>
