<svg version="1.1"
      xmlns="http://www.w3.org/2000/svg"
      xmlns:xlink="http://www.w3.org/1999/xlink"  id="snapshot-79673" width="250" height="250" viewBox="0 0 250 250"><desc>This image was made on Patterninja.com</desc><defs>
<!-- image 12095 -->
<g id="transformed-12095" data-image="12095" transform="translate(185.08647244758737, -35.07886552931954) rotate(29, 23.91352755241264, 38.07886552931954)"><g><svg version="1.1" width="47.82705510482528px" height="76.15773105863909px" viewBox="0 0 47.82705510482528 76.15773105863909"><g id="original-12095"><svg xmlns="http://www.w3.org/2000/svg" viewBox="0 0 29.371 46.731" xmlns:xlink="http://www.w3.org/1999/xlink" version="1.1" preserveAspectRatio="xMidYMid meet">
  <g transform="translate(-25.002 -233.947)">
    <rect width="28.313" height="45.672" x="25.531" y="234.476" stroke-width="1.058" rx="5.019" fill="rgba(250, 250, 250, 0)" stroke="rgba(209, 220, 219, 0.3)"/>
    <path stroke-width="1.058" d="M25.39 240.072h28.064" fill="rgba(250, 250, 250, 0)" stroke="rgba(209, 220, 219, 0.3)"/>
    <path stroke-width="1.058" d="M25.658 271.369H53.72" fill="rgba(250, 250, 250, 0)" stroke="rgba(209, 220, 219, 0.3)"/>
    <circle cx="39.688" cy="275.886" r="1.637" stroke-width=".463" fill="rgba(250, 250, 250, 0)" stroke="rgba(209, 220, 219, 0.3)"/>
    <path stroke-width="1.058" d="M35.54 261.254l5.623-7.353" fill="rgba(250, 250, 250, 0)" stroke="rgba(209, 220, 219, 0.3)"/>
    <path stroke-width="1.058" d="M33.744 256.386l9.01-11.782" fill="rgba(250, 250, 250, 0)" stroke="rgba(209, 220, 219, 0.3)"/>
    <circle cx="42.496" cy="251.831" r=".509" stroke-width=".576" fill="rgba(250, 250, 250, 0)" stroke="rgba(209, 220, 219, 0.3)"/>
  </g>
</svg>
</g></svg></g></g>
<!-- /image 12095 -->

<!-- image 52013 -->
<g id="transformed-52013" data-image="52013" transform="translate(14.984378812835786, 16.984378812835757) rotate(358, 32.015621187164214, 32.01562118716424)"><g><svg version="1.1" width="64.03124237432843px" height="64.03124237432849px" viewBox="0 0 64.03124237432843 64.03124237432849"><g id="original-52013"><svg xmlns="http://www.w3.org/2000/svg" viewBox="0 0 46.268 46.268" xmlns:xlink="http://www.w3.org/1999/xlink" version="1.1" preserveAspectRatio="xMidYMid meet">
  <g transform="translate(-77.372 -198.344)">
    <rect width="45.21" height="45.21" x="77.901" y="198.873" stroke-width="1.058" rx="3" fill="rgba(0, 0, 0, 0)" stroke="rgba(209, 220, 219, 0.3)"/>
    <path stroke-width="1.058" d="M77.921 205.302h45.169" fill="rgba(0, 0, 0, 0)" stroke="rgba(209, 220, 219, 0.3)"/>
    <circle cx="81.797" cy="201.7" r="1.203" stroke-width="1.058" fill="rgba(0, 0, 0, 0)" stroke="rgba(209, 220, 219, 0.3)"/>
    <circle cx="85.939" cy="201.7" r="1.203" stroke-width="1.058" fill="rgba(0, 0, 0, 0)" stroke="rgba(209, 220, 219, 0.3)"/>
    <circle cx="90.082" cy="201.7" r="1.203" stroke-width="1.058" fill="rgba(0, 0, 0, 0)" stroke="rgba(209, 220, 219, 0.3)"/>
    <path stroke-width="1.058" d="M109.624 221.256l-5.682 3.347" fill="rgba(0, 0, 0, 0)" stroke="rgba(209, 220, 219, 0.3)"/>
    <path stroke-width="1.058" d="M101.611 227.315l-2.202 6.216" fill="rgba(0, 0, 0, 0)" stroke="rgba(209, 220, 219, 0.3)"/>
    <path stroke-width="1.058" d="M91.522 216.146l18.272 5.122" fill="rgba(0, 0, 0, 0)" stroke="rgba(209, 220, 219, 0.3)"/>
    <path stroke-width="1.058" d="M99.379 233.395l-3.911-8.645-3.911-8.645" fill="rgba(0, 0, 0, 0)" stroke="rgba(209, 220, 219, 0.3)"/>
    <path stroke-width="1.058" d="M101.444 227.257l5.045 4.33" fill="rgba(0, 0, 0, 0)" stroke="rgba(209, 220, 219, 0.3)"/>
    <path stroke-width="1.058" d="M103.815 224.493l5.046 4.33" fill="rgba(0, 0, 0, 0)" stroke="rgba(209, 220, 219, 0.3)"/>
    <path stroke-width="1.058" d="M106.398 231.49l2.415-2.815" fill="rgba(0, 0, 0, 0)" stroke="rgba(209, 220, 219, 0.3)"/>
    <path stroke-width=".053" d="M91.715 215.678l-.91-.307.307.956.473-.141z" fill="rgba(0, 0, 0, 0)" stroke="rgba(209, 220, 219, 0.3)"/>
    <path stroke-width=".159" d="M99.87 233.572l-.383 1.252-.552-1.303.351-.167z" fill="rgba(0, 0, 0, 0)" stroke="rgba(209, 220, 219, 0.3)"/>
    <path stroke-width=".159" d="M109.776 221.684l1.183-.563-1.37-.355-.113.372z" fill="rgba(0, 0, 0, 0)" stroke="rgba(209, 220, 219, 0.3)"/>
    <path stroke-width=".132" d="M101.174 227.19l.234-.668.384.401-.15.501z" fill="rgba(0, 0, 0, 0)" stroke="rgba(209, 220, 219, 0.3)"/>
    <path stroke-width=".132" d="M103.731 224.207l-.618.345.461.31.468-.235z" fill="rgba(0, 0, 0, 0)" stroke="rgba(209, 220, 219, 0.3)"/>
    <path stroke-width=".159" d="M106.118 231.868l.318.267.334-.368-.284-.417z" fill="rgba(0, 0, 0, 0)" stroke="rgba(209, 220, 219, 0.3)"/>
    <path stroke-width=".159" d="M109.357 228.677l-.31-.276-.344.358.273.425z" fill="rgba(0, 0, 0, 0)" stroke="rgba(209, 220, 219, 0.3)"/>
  </g>
</svg>
</g></svg></g></g>
<!-- /image 52013 -->

<!-- image 55306 -->
<g id="transformed-55306" data-image="55306" transform="translate(79.39948186876244, 181.39948186876245) rotate(306, 38.600518131237564, 38.60051813123755)"><g><svg version="1.1" width="77.20103626247513px" height="77.2010362624751px" viewBox="0 0 77.20103626247513 77.2010362624751"><g id="original-55306"><svg xmlns="http://www.w3.org/2000/svg" viewBox="0 0 46.268 46.268" xmlns:xlink="http://www.w3.org/1999/xlink" version="1.1" preserveAspectRatio="xMidYMid meet">
  <g transform="translate(-77.372 -198.344)">
    <rect width="45.21" height="45.21" x="77.901" y="198.873" rx="3" stroke-width="1.058" fill="rgba(0, 0, 0, 0)" stroke="rgba(209, 220, 219, 0.3)"/>
    <path d="M77.921 205.302h45.169" stroke-width="1.058" fill="rgba(0, 0, 0, 0)" stroke="rgba(209, 220, 219, 0.3)"/>
    <circle cx="81.797" cy="201.7" r="1.203" stroke-width="1.058" fill="rgba(0, 0, 0, 0)" stroke="rgba(209, 220, 219, 0.3)"/>
    <circle cx="85.939" cy="201.7" r="1.203" stroke-width="1.058" fill="rgba(0, 0, 0, 0)" stroke="rgba(209, 220, 219, 0.3)"/>
    <circle cx="90.082" cy="201.7" r="1.203" stroke-width="1.058" fill="rgba(0, 0, 0, 0)" stroke="rgba(209, 220, 219, 0.3)"/>
    <rect width="12.095" height="12.095" x="107.402" y="208.231" rx="2.219" stroke-width="1.058" fill="rgba(0, 0, 0, 0)" stroke="rgba(209, 220, 219, 0.3)"/>
    <rect width="39.876" height="11.812" x="80.584" y="223.728" rx="2.219" stroke-width="1.058" fill="rgba(0, 0, 0, 0)" stroke="rgba(209, 220, 219, 0.3)"/>
    <path d="M80.962 209.649h22.206" stroke-width="1.058" fill="rgba(0, 0, 0, 0)" stroke="rgba(209, 220, 219, 0.3)"/>
    <path d="M80.962 214.279h22.206" stroke-width="1.058" fill="rgba(0, 0, 0, 0)" stroke="rgba(209, 220, 219, 0.3)"/>
    <path d="M80.962 218.91h22.206" stroke-width="1.058" fill="rgba(0, 0, 0, 0)" stroke="rgba(209, 220, 219, 0.3)"/>
    <path d="M81.151 240.02h38.837" stroke-width="1.058" fill="rgba(0, 0, 0, 0)" stroke="rgba(209, 220, 219, 0.3)"/>
  </g>
</svg>
</g></svg></g></g>
<!-- /image 55306 -->

<!-- image 84437 -->
<g id="transformed-84437" data-image="84437" transform="translate(158.92602725863824, 78.92602725863826) rotate(4, 27.073972741361768, 27.07397274136174)"><g><svg version="1.1" width="54.147945482723536px" height="54.14794548272348px" viewBox="0 0 54.147945482723536 54.14794548272348"><g id="original-84437"><svg xmlns="http://www.w3.org/2000/svg" viewBox="0 0 45.274 45.274" xmlns:xlink="http://www.w3.org/1999/xlink" version="1.1" preserveAspectRatio="xMidYMid meet">
  <g transform="translate(54.513 -197.93)">
    <circle cx="-31.876" cy="220.567" r="22.108" stroke-width="1.058" fill="rgba(0, 0, 0, 0)" stroke="rgba(209, 220, 219, 0.3)"/>
    <ellipse cx="-31.876" cy="220.567" rx="11.646" ry="21.973" stroke-width="1.058" fill="rgba(0, 0, 0, 0)" stroke="rgba(209, 220, 219, 0.3)"/>
    <path d="M-53.822 220.406H-9.93" stroke-width="1.058" fill="rgba(0, 0, 0, 0)" stroke="rgba(209, 220, 219, 0.3)"/>
    <path d="M-51.08 209.433h38.084" stroke-width="1.058" fill="rgba(0, 0, 0, 0)" stroke="rgba(209, 220, 219, 0.3)"/>
    <path d="M-50.756 231.38h38.083" stroke-width="1.058" fill="rgba(0, 0, 0, 0)" stroke="rgba(209, 220, 219, 0.3)"/>
  </g>
</svg>
</g></svg></g></g>
<!-- /image 84437 -->

<!-- image 82505 -->
<g id="transformed-82505" data-image="82505" transform="translate(-15.885527085024819, 127.11447291497518) rotate(27, 34.88552708502482, 34.88552708502482)"><g><svg version="1.1" width="69.77105417004964px" height="69.77105417004964px" viewBox="0 0 69.77105417004964 69.77105417004964"><g id="original-82505"><svg xmlns="http://www.w3.org/2000/svg" viewBox="0 0 46.268 46.268" xmlns:xlink="http://www.w3.org/1999/xlink" version="1.1" preserveAspectRatio="xMidYMid meet">
  <g transform="translate(-77.372 -198.344)">
    <rect width="45.21" height="45.21" x="77.901" y="198.873" rx="3" stroke-width="1.058" fill="rgba(0, 0, 0, 0)" stroke="rgba(209, 220, 219, 0.3)"/>
    <path d="M77.921 205.302h45.169" stroke-width="1.058" fill="rgba(0, 0, 0, 0)" stroke="rgba(209, 220, 219, 0.3)"/>
    <circle cx="81.797" cy="201.7" r="1.203" stroke-width="1.058" fill="rgba(0, 0, 0, 0)" stroke="rgba(209, 220, 219, 0.3)"/>
    <circle cx="85.939" cy="201.7" r="1.203" stroke-width="1.058" fill="rgba(0, 0, 0, 0)" stroke="rgba(209, 220, 219, 0.3)"/>
    <circle cx="90.082" cy="201.7" r="1.203" stroke-width="1.058" fill="rgba(0, 0, 0, 0)" stroke="rgba(209, 220, 219, 0.3)"/>
    <circle cx="89.798" cy="218.673" r="7.607" stroke-width="1.058" fill="rgba(0, 0, 0, 0)" stroke="rgba(209, 220, 219, 0.3)"/>
    <path d="M78.128 218.153h3.968" stroke-width="1.058" fill="rgba(0, 0, 0, 0)" stroke="rgba(209, 220, 219, 0.3)"/>
    <path d="M97.593 218.059h25.325" stroke-width="1.058" fill="rgba(0, 0, 0, 0)" stroke="rgba(209, 220, 219, 0.3)"/>
    <path d="M81.34 230.249h14.363" stroke-width="1.058" fill="rgba(0, 0, 0, 0)" stroke="rgba(209, 220, 219, 0.3)"/>
    <path d="M81.34 235.115h14.363" stroke-width="1.058" fill="rgba(0, 0, 0, 0)" stroke="rgba(209, 220, 219, 0.3)"/>
    <path d="M81.34 239.981h14.363" stroke-width="1.058" fill="rgba(0, 0, 0, 0)" stroke="rgba(209, 220, 219, 0.3)"/>
    <rect width="18.615" height="17.292" x="101.184" y="222.878" rx="3" stroke-width="1.058" fill="rgba(0, 0, 0, 0)" stroke="rgba(209, 220, 219, 0.3)"/>
  </g>
</svg>
</g></svg></g></g>
<!-- /image 82505 -->

<!-- image 30969 -->
<g id="transformed-30969" data-image="30969" transform="translate(73.3469024362112, 81.03457677774213) rotate(29, 28.653097563788805, 27.965423222257876)"><g><svg version="1.1" width="57.30619512757761px" height="55.93084644451575px" viewBox="0 0 57.30619512757761 55.93084644451575"><g id="original-30969"><svg xmlns="http://www.w3.org/2000/svg" viewBox="0 0 36.024 35.182" xmlns:xlink="http://www.w3.org/1999/xlink" version="1.1" preserveAspectRatio="xMidYMid meet">
  <g transform="rotate(-39.007 34.499 -16.372)">
    <path d="M9.52-2.191l3.606-.83.208-.022 4.187 1.548v2.99l-4.187 1.548-.208-.022-3.605-.83-1.872 3.886 2.897 2.302.147.149 1.4 4.238-2.338 1.865-3.82-2.308-.113-.177L4.223 8.81l-4.205.96.006 3.7-.024.207-2.441 3.738-2.916-.666-.577-4.426.068-.198 1.611-3.33-3.372-2.69-2.889 2.312-.177.11-4.444.422-1.298-2.694 3.1-3.212.198-.07 3.609-.816v-4.314l-3.61-.817-.196-.07-3.101-3.211 1.298-2.694 4.444.421.177.111 2.889 2.312 3.372-2.69-1.61-3.33-.07-.198.578-4.426 2.916-.666L0-13.677l.024.208-.006 3.7 4.205.96 1.6-3.337.111-.177 3.821-2.308 2.338 1.865-1.4 4.238-.147.149-2.897 2.302z" stroke-width="1.058" fill="rgba(0, 0, 0, 0)" stroke="rgba(209, 220, 219, 0.3)"/>
    <circle r="7.342" stroke-width="1.058" fill="rgba(0, 0, 0, 0)" stroke="rgba(209, 220, 219, 0.3)"/>
  </g>
</svg>
</g></svg></g></g>
<!-- /image 30969 -->
</defs><rect x="0" y="0" width="250" height="250" fill="rgba(255, 255, 255, 255)"></rect><use xlink:href="#transformed-12095" transform="translate(-250, -250)"></use><use xlink:href="#transformed-12095" transform="translate(0, -250)"></use><use xlink:href="#transformed-12095" transform="translate(250, -250)"></use><use xlink:href="#transformed-12095" transform="translate(-250, 0)"></use><use xlink:href="#transformed-12095" transform="translate(0, 0)"></use><use xlink:href="#transformed-12095" transform="translate(250, 0)"></use><use xlink:href="#transformed-12095" transform="translate(-250, 250)"></use><use xlink:href="#transformed-12095" transform="translate(0, 250)"></use><use xlink:href="#transformed-12095" transform="translate(250, 250)"></use><use xlink:href="#transformed-52013" transform="translate(-250, -250)"></use><use xlink:href="#transformed-52013" transform="translate(0, -250)"></use><use xlink:href="#transformed-52013" transform="translate(250, -250)"></use><use xlink:href="#transformed-52013" transform="translate(-250, 0)"></use><use xlink:href="#transformed-52013" transform="translate(0, 0)"></use><use xlink:href="#transformed-52013" transform="translate(250, 0)"></use><use xlink:href="#transformed-52013" transform="translate(-250, 250)"></use><use xlink:href="#transformed-52013" transform="translate(0, 250)"></use><use xlink:href="#transformed-52013" transform="translate(250, 250)"></use><use xlink:href="#transformed-55306" transform="translate(-250, -250)"></use><use xlink:href="#transformed-55306" transform="translate(0, -250)"></use><use xlink:href="#transformed-55306" transform="translate(250, -250)"></use><use xlink:href="#transformed-55306" transform="translate(-250, 0)"></use><use xlink:href="#transformed-55306" transform="translate(0, 0)"></use><use xlink:href="#transformed-55306" transform="translate(250, 0)"></use><use xlink:href="#transformed-55306" transform="translate(-250, 250)"></use><use xlink:href="#transformed-55306" transform="translate(0, 250)"></use><use xlink:href="#transformed-55306" transform="translate(250, 250)"></use><use xlink:href="#transformed-84437" transform="translate(-250, -250)"></use><use xlink:href="#transformed-84437" transform="translate(0, -250)"></use><use xlink:href="#transformed-84437" transform="translate(250, -250)"></use><use xlink:href="#transformed-84437" transform="translate(-250, 0)"></use><use xlink:href="#transformed-84437" transform="translate(0, 0)"></use><use xlink:href="#transformed-84437" transform="translate(250, 0)"></use><use xlink:href="#transformed-84437" transform="translate(-250, 250)"></use><use xlink:href="#transformed-84437" transform="translate(0, 250)"></use><use xlink:href="#transformed-84437" transform="translate(250, 250)"></use><use xlink:href="#transformed-82505" transform="translate(-250, -250)"></use><use xlink:href="#transformed-82505" transform="translate(0, -250)"></use><use xlink:href="#transformed-82505" transform="translate(250, -250)"></use><use xlink:href="#transformed-82505" transform="translate(-250, 0)"></use><use xlink:href="#transformed-82505" transform="translate(0, 0)"></use><use xlink:href="#transformed-82505" transform="translate(250, 0)"></use><use xlink:href="#transformed-82505" transform="translate(-250, 250)"></use><use xlink:href="#transformed-82505" transform="translate(0, 250)"></use><use xlink:href="#transformed-82505" transform="translate(250, 250)"></use><use xlink:href="#transformed-30969" transform="translate(-250, -250)"></use><use xlink:href="#transformed-30969" transform="translate(0, -250)"></use><use xlink:href="#transformed-30969" transform="translate(250, -250)"></use><use xlink:href="#transformed-30969" transform="translate(-250, 0)"></use><use xlink:href="#transformed-30969" transform="translate(0, 0)"></use><use xlink:href="#transformed-30969" transform="translate(250, 0)"></use><use xlink:href="#transformed-30969" transform="translate(-250, 250)"></use><use xlink:href="#transformed-30969" transform="translate(0, 250)"></use><use xlink:href="#transformed-30969" transform="translate(250, 250)"></use></svg>