<?xml version="1.0" encoding="utf-8"?>
<!-- Generator: Adobe Illustrator 23.0.6, SVG Export Plug-In . SVG Version: 6.00 Build 0)  -->
<svg version="1.1" id="Layer_1" xmlns="http://www.w3.org/2000/svg" xmlns:xlink="http://www.w3.org/1999/xlink" x="0px" y="0px"
	 viewBox="0 0 64 80" style="enable-background:new 0 0 64 80;" xml:space="preserve">
<title>Search</title>
<g>
	<path d="M42,41c-10.5,0-19-8.5-19-19S31.5,3,42,3s19,8.5,19,19c0,5-2,9.9-5.6,13.4l0,0C51.9,39,47,41,42,41z M42,5
		c-9.4,0-17,7.7-17,17c0,4.5,1.8,8.8,5,12c6.6,6.7,17.4,6.7,24,0s6.7-17.4,0-24C50.9,6.8,46.5,5,42,5z M54.8,34.7L54.8,34.7z"/>
	<path d="M42,35.7c-7.6,0-13.7-6.2-13.7-13.8S34.5,8.3,42.1,8.3S55.8,14.5,55.8,22c0,3.6-1.5,7.1-4,9.7C49.1,34.3,45.6,35.7,42,35.7
		z M42,10.3c-6.5,0-11.8,5.2-11.8,11.7c0,6.5,5.2,11.8,11.7,11.8c3.1,0,6.2-1.2,8.4-3.5l0,0c4.6-4.6,4.5-12-0.1-16.6
		C48,11.5,45.1,10.3,42,10.3z"/>
	<path d="M10.9,60.5c-0.3,0-0.5-0.1-0.7-0.3l-6.4-6.4c-0.4-0.4-0.4-1,0-1.4c0,0,0,0,0,0l17.1-17.1c0.4-0.4,1-0.4,1.4,0l6.4,6.4
		c0.2,0.2,0.3,0.4,0.3,0.7c0,0.3-0.1,0.5-0.3,0.7L11.6,60.2C11.4,60.4,11.1,60.5,10.9,60.5z M5.9,53.1l4.9,4.9l15.7-15.7l-4.9-5
		L5.9,53.1z"/>
	<path d="M26.6,42c-0.3,0-0.5-0.1-0.7-0.3l-3.7-3.7c-0.4-0.4-0.4-1,0-1.4l4.5-4.5c0.2-0.2,0.4-0.3,0.7-0.3l0,0
		c0.3,0,0.5,0.1,0.7,0.3l3.7,3.7c0.4,0.4,0.4,1,0,1.4l-4.5,4.5C27.1,41.9,26.9,42,26.6,42z M24.4,37.4l2.3,2.3l3.1-3.1l-2.3-2.3
		L24.4,37.4z"/>
</g>
</svg>
