<?xml version="1.0" encoding="UTF-8" standalone="no"?>
<svg
   xmlns:dc="http://purl.org/dc/elements/1.1/"
   xmlns:cc="http://creativecommons.org/ns#"
   xmlns:rdf="http://www.w3.org/1999/02/22-rdf-syntax-ns#"
   xmlns:svg="http://www.w3.org/2000/svg"
   xmlns="http://www.w3.org/2000/svg"
   xmlns:sodipodi="http://sodipodi.sourceforge.net/DTD/sodipodi-0.dtd"
   xmlns:inkscape="http://www.inkscape.org/namespaces/inkscape"
   xml:space="preserve"
   version="1.1"
   style="clip-rule:evenodd;fill-rule:evenodd;image-rendering:optimizeQuality;shape-rendering:geometricPrecision;text-rendering:geometricPrecision"
   viewBox="0 0 266.6442 267.28827"
   x="0px"
   y="0px"
   id="svg14"
   sodipodi:docname="phone.svg"
   width="266.6442"
   height="267.28827"
   inkscape:version="0.92.4 (5da689c313, 2019-01-14)"><metadata
     id="metadata18"><rdf:RDF><cc:Work
         rdf:about=""><dc:format>image/svg+xml</dc:format><dc:type
           rdf:resource="http://purl.org/dc/dcmitype/StillImage" /><dc:title></dc:title></cc:Work></rdf:RDF></metadata><sodipodi:namedview
     pagecolor="#ffffff"
     bordercolor="#666666"
     borderopacity="1"
     objecttolerance="10"
     gridtolerance="10"
     guidetolerance="10"
     inkscape:pageopacity="0"
     inkscape:pageshadow="2"
     inkscape:window-width="2665"
     inkscape:window-height="1230"
     id="namedview16"
     showgrid="false"
     fit-margin-top="0"
     fit-margin-left="0"
     fit-margin-right="0"
     fit-margin-bottom="0"
     inkscape:zoom="1.6036247"
     inkscape:cx="-228.10888"
     inkscape:cy="10.473559"
     inkscape:window-x="5445"
     inkscape:window-y="2977"
     inkscape:window-maximized="0"
     inkscape:current-layer="svg14" /><defs
     id="defs4"><style
       type="text/css"
       id="style2">
   
    .fil0 {fill:black}
   
  </style></defs><g
     id="g8"
     transform="translate(-33.428372,-33)"
     style="fill:#fffffa;fill-opacity:1"><path
       class="fil0"
       d="m 178,229 c 13,9 18,9 26,8 7,0 48,-15 48,-15 0,0 17,7 33,21 17,14 15,12 15,17 0,5 -2,19 -19,32 -17,14 -46,10 -78,-10 C 147,248 86,187 51,130 32,98 28,69 41,52 55,35 68,33 73,33 c 5,1 4,-2 17,15 14,17 22,33 22,33 0,0 -15,41 -16,49 0,7 0,13 9,25 2,4 69,71 73,74 z M 158,76 c -8,0 -8,-12 0,-12 61,0 111,50 111,111 0,8 -12,8 -12,0 0,-54 -44,-99 -99,-99 z m 2,38 c -8,0 -8,-13 0,-13 40,0 72,33 72,73 0,8 -12,8 -12,0 0,-33 -27,-60 -60,-60 z"
       id="path6"
       inkscape:connector-curvature="0"
       style="fill:#fffffa;fill-opacity:1" /></g></svg>