<?xml version="1.0" encoding="UTF-8" standalone="no"?>
<svg
   xmlns:dc="http://purl.org/dc/elements/1.1/"
   xmlns:cc="http://creativecommons.org/ns#"
   xmlns:rdf="http://www.w3.org/1999/02/22-rdf-syntax-ns#"
   xmlns:svg="http://www.w3.org/2000/svg"
   xmlns="http://www.w3.org/2000/svg"
   xmlns:sodipodi="http://sodipodi.sourceforge.net/DTD/sodipodi-0.dtd"
   xmlns:inkscape="http://www.inkscape.org/namespaces/inkscape"
   version="1.1"
   x="0px"
   y="0px"
   viewBox="0 0 50 33"
   xml:space="preserve"
   id="svg14"
   sodipodi:docname="email.svg"
   width="50"
   height="33"
   inkscape:version="0.92.4 (5da689c313, 2019-01-14)"><metadata
     id="metadata20"><rdf:RDF><cc:Work
         rdf:about=""><dc:format>image/svg+xml</dc:format><dc:type
           rdf:resource="http://purl.org/dc/dcmitype/StillImage" /><dc:title></dc:title></cc:Work></rdf:RDF></metadata><defs
     id="defs18" /><sodipodi:namedview
     pagecolor="#ffffff"
     bordercolor="#666666"
     borderopacity="1"
     objecttolerance="10"
     gridtolerance="10"
     guidetolerance="10"
     inkscape:pageopacity="0"
     inkscape:pageshadow="2"
     inkscape:window-width="1798"
     inkscape:window-height="1417"
     id="namedview16"
     showgrid="false"
     fit-margin-top="0"
     fit-margin-left="0"
     fit-margin-right="0"
     fit-margin-bottom="0"
     inkscape:zoom="3.1466667"
     inkscape:cx="25"
     inkscape:cy="9"
     inkscape:window-x="5740"
     inkscape:window-y="2864"
     inkscape:window-maximized="0"
     inkscape:current-layer="svg14" /><polygon
     points="55,42.6 55,17.4 39.2,30 "
     id="polygon2"
     style="fill:#fffffa;fill-opacity:1"
     transform="translate(-5,-13.5)" /><polygon
     points="20.8,30 5,17.4 5,42.6 "
     id="polygon4"
     style="fill:#fffffa;fill-opacity:1"
     transform="translate(-5,-13.5)" /><path
     d="M 0.3,32.3 C 0.4,32.7 0.8,33 1.2,33 h 47.6 c 0.4,0 0.8,-0.3 0.9,-0.7 0.1,-0.4 0,-0.8 -0.3,-1.1 L 32.6,17.8 29.3,20.4 c -1.2,1 -2.7,1.5 -4.3,1.5 -1.6,0 -3.1,-0.5 -4.3,-1.5 L 17.4,17.8 0.6,31.2 c -0.4,0.3 -0.5,0.7 -0.3,1.1 z"
     id="path6"
     style="fill:#fffffa;fill-opacity:1"
     inkscape:connector-curvature="0" /><path
     d="m 25,19.9 c 1.1,0 2.2,-0.3 3.1,-1.1 L 49.4,1.8 C 49.7,1.5 49.9,1.1 49.7,0.7 49.6,0.3 49.2,0 48.7,0 H 1.2 C 0.8,0 0.4,0.3 0.3,0.7 0.1,1.1 0.3,1.5 0.6,1.8 l 21.3,17 c 0.9,0.8 2,1.1 3.1,1.1 z"
     id="path8"
     style="fill:#fffffa;fill-opacity:1"
     inkscape:connector-curvature="0" /></svg>