<?xml version="1.0" encoding="UTF-8" standalone="no"?>
<svg
   xmlns:dc="http://purl.org/dc/elements/1.1/"
   xmlns:cc="http://creativecommons.org/ns#"
   xmlns:rdf="http://www.w3.org/1999/02/22-rdf-syntax-ns#"
   xmlns:svg="http://www.w3.org/2000/svg"
   xmlns="http://www.w3.org/2000/svg"
   xmlns:sodipodi="http://sodipodi.sourceforge.net/DTD/sodipodi-0.dtd"
   xmlns:inkscape="http://www.inkscape.org/namespaces/inkscape"
   data-name="Layer 1"
   viewBox="0 0 79.477585 89.631218"
   x="0px"
   y="0px"
   version="1.1"
   id="svg10"
   sodipodi:docname="phone.svg"
   width="79.477585"
   height="89.631218"
   inkscape:version="0.92.4 (5da689c313, 2019-01-14)">
  <metadata
     id="metadata16">
    <rdf:RDF>
      <cc:Work
         rdf:about="">
        <dc:format>image/svg+xml</dc:format>
        <dc:type
           rdf:resource="http://purl.org/dc/dcmitype/StillImage" />
        <dc:title>business card icon</dc:title>
      </cc:Work>
    </rdf:RDF>
  </metadata>
  <defs
     id="defs14" />
  <sodipodi:namedview
     pagecolor="#ffffff"
     bordercolor="#666666"
     borderopacity="1"
     objecttolerance="10"
     gridtolerance="10"
     guidetolerance="10"
     inkscape:pageopacity="0"
     inkscape:pageshadow="2"
     inkscape:window-width="914"
     inkscape:window-height="1182"
     id="namedview12"
     showgrid="false"
     fit-margin-top="0"
     fit-margin-left="0"
     fit-margin-right="0"
     fit-margin-bottom="0"
     inkscape:zoom="1.888"
     inkscape:cx="39.740938"
     inkscape:cy="32.324709"
     inkscape:window-x="5713"
     inkscape:window-y="2836"
     inkscape:window-maximized="0"
     inkscape:current-layer="svg10" />
  <title
     id="title2">business card icon</title>
  <path
     d="m 77.680938,68.056505 c -5.53,-4.53 -16.64,-13.08 -17.49,-13.54 -3.56,-1.89 -8.6,7.19 -10,9.5 v 0 c -3.45,4.79 -7.45,1.9 -8.85,0.57 v -0.07 0 c -6.15,-5.75 -14.11,-16 -18.43,-21.78 -4.32,-5.78 -1,-8.9 -0.07,-9.61 l 0.2,-0.15 v 0 a 28,28 0 0 0 2.38,-1.84 24,24 0 0 0 6.63,-10.09 4.92,4.92 0 0 0 -0.65,-4.61 l -10.66,-14.4499999 a 4.89,4.89 0 0 0 -6.88,-1.00000004 C 9.5909376,4.1865051 3.4409376,9.8065051 1.3009376,16.806505 a 35.09,35.09 0 0 0 -1.13000005,5.35 35.49,35.49 0 0 0 1.13000005,13 61.48,61.48 0 0 0 5.88,14.64 78.82,78.82 0 0 0 12.4300004,16.84 c 0,0 5.34,6 9.58,9.86 3.67,3.31 9.75,8.8 18.88,11.55 3.61,1.08 7.67,2.25 12.67,1.13 a 23,23 0 0 0 9.58,-5.07 35.32,35.32 0 0 0 8.5,-9.83 4.87,4.87 0 0 0 -1.14,-6.22 z"
     id="path4"
     inkscape:connector-curvature="0"
     style="fill:#fffffa;fill-opacity:1" />
</svg>
