<?xml version="1.0" encoding="UTF-8"?>
<svg width="54" height="60" version="1.1" viewBox="0 0 54 60" xmlns="http://www.w3.org/2000/svg" xmlns:cc="http://creativecommons.org/ns#" xmlns:dc="http://purl.org/dc/elements/1.1/" xmlns:rdf="http://www.w3.org/1999/02/22-rdf-syntax-ns#">
 <metadata>
  <rdf:RDF>
   <cc:Work rdf:about="">
    <dc:format>image/svg+xml</dc:format>
    <dc:type rdf:resource="http://purl.org/dc/dcmitype/StillImage"/>
    <dc:title/>
   </cc:Work>
  </rdf:RDF>
 </metadata>
 <g transform="translate(-5,-2)">
  <path d="m18 16a7 7 0 1 0-7-7 7.008 7.008 0 0 0 7 7zm0-12a5 5 0 1 1-5 5 5.006 5.006 0 0 1 5-5z"/>
  <path d="m10.314 13.747-0.759 0.433a9.02 9.02 0 0 0-4.555 7.82v6a3 3 0 0 0 3 3h20a3 3 0 0 0 3-3v-6a9.02 9.02 0 0 0-4.555-7.82l-0.759-0.433-0.531 0.7a8.973 8.973 0 0 1-14.31 0zm7.686 6.253a10.9 10.9 0 0 0 8.152-3.629 7.015 7.015 0 0 1 2.848 5.629v6a1 1 0 0 1-1 1h-20a1 1 0 0 1-1-1v-6a7.015 7.015 0 0 1 2.848-5.629 10.9 10.9 0 0 0 8.152 3.629z"/>
  <path d="m30 55a7.008 7.008 0 0 0 7 7h15a7.008 7.008 0 0 0 7-7v-15a7.008 7.008 0 0 0-7-7h-15a7.008 7.008 0 0 0-7 7zm27 0a5.006 5.006 0 0 1-5 5h-15a5.006 5.006 0 0 1-5-5v-12h25zm-25-15a5.006 5.006 0 0 1 5-5h15a5.006 5.006 0 0 1 5 5v1h-25z"/>
  <path d="m36.71 37.29a1 1 0 1 0 0 1.42 1.032 1.032 0 0 0 0.21-0.33 0.942 0.942 0 0 0 0-0.76 0.933 0.933 0 0 0-0.21-0.33z"/>
  <path d="m39.8 37.02a0.636 0.636 0 0 0-0.18 0.06 0.782 0.782 0 0 0-0.181 0.09 1.7 1.7 0 0 0-0.149 0.12 1.014 1.014 0 0 0 0 1.42l0.149 0.12a0.782 0.782 0 0 0 0.181 0.09 0.636 0.636 0 0 0 0.18 0.06 1.487 1.487 0 0 0 0.2 0.02 1 1 0 0 0 0.71-1.71 1.038 1.038 0 0 0-0.91-0.27z"/>
  <path d="m43.62 37.08a1.032 1.032 0 0 0-0.33 0.21 1.014 1.014 0 0 0 0 1.42 1.032 1.032 0 0 0 0.33 0.21 1 1 0 0 0 0.38 0.08 1 1 0 0 0 0.71-1.71 1 1 0 0 0-1.09-0.21z"/>
  <path d="M 45.367,26.87 49,30 52.13,26.367 51.917,23.5 49.6,26.183 A 19.021,19.021 0 0 0 31,11 v 2 A 17.025,17.025 0 0 1 47.529,26.046 L 45.154,24 Z"/>
  <path d="M 12.633,37.13 9,34 5.87,37.633 6.083,40.5 8.4,37.817 A 19.021,19.021 0 0 0 27,53 V 51 A 17.025,17.025 0 0 1 10.471,37.954 L 12.846,40 Z"/>
 </g>
</svg>
