<?xml version="1.0" encoding="UTF-8"?>
<svg width="60" height="60" version="1.1" viewBox="0 0 60 60" xmlns="http://www.w3.org/2000/svg" xmlns:cc="http://creativecommons.org/ns#" xmlns:dc="http://purl.org/dc/elements/1.1/" xmlns:rdf="http://www.w3.org/1999/02/22-rdf-syntax-ns#">
 <metadata>
  <rdf:RDF>
   <cc:Work rdf:about="">
    <dc:format>image/svg+xml</dc:format>
    <dc:type rdf:resource="http://purl.org/dc/dcmitype/StillImage"/>
    <dc:title/>
   </cc:Work>
  </rdf:RDF>
 </metadata>
 <g transform="translate(-2,-2)">
  <path d="m59 2h-54a3 3 0 0 0-3 3v54a3 3 0 0 0 3 3h54a3 3 0 0 0 3-3v-54a3 3 0 0 0-3-3zm1 57a1 1 0 0 1-1 1h-54a1 1 0 0 1-1-1v-47h56zm-56-49v-5a1 1 0 0 1 1-1h54a1 1 0 0 1 1 1v5z"/>
  <path d="m6.62 6.08a0.9 0.9 0 0 0-0.54 0.54 0.942 0.942 0 0 0 0 0.76 1.032 1.032 0 0 0 0.21 0.33 1.155 1.155 0 0 0 0.33 0.21 1 1 0 0 0 0.38 0.08 1.225 1.225 0 0 0 0.19-0.02 0.6 0.6 0 0 0 0.19-0.06 0.757 0.757 0 0 0 0.18-0.09 1.576 1.576 0 0 0 0.15-0.12 1.014 1.014 0 0 0 0-1.42 1.017 1.017 0 0 0-1.09-0.21z"/>
  <path d="m11.38 6.08a0.916 0.916 0 0 0-0.76 0 0.9 0.9 0 0 0-0.54 0.54 0.942 0.942 0 0 0 0 0.76 1.032 1.032 0 0 0 0.21 0.33 1.155 1.155 0 0 0 0.33 0.21 0.943 0.943 0 0 0 0.76 0 1.032 1.032 0 0 0 0.33-0.21 1.014 1.014 0 0 0 0-1.42 1.032 1.032 0 0 0-0.33-0.21z"/>
  <path d="m15.71 6.29a1 1 0 0 0-1.09-0.21 1.155 1.155 0 0 0-0.33 0.21 1.032 1.032 0 0 0-0.21 0.33 0.942 0.942 0 0 0 0 0.76 1.032 1.032 0 0 0 0.21 0.33 1.155 1.155 0 0 0 0.33 0.21 1 1 0 0 0 0.38 0.08 1.052 1.052 0 0 0 0.71-0.29 1.032 1.032 0 0 0 0.21-0.33 0.943 0.943 0 0 0 0-0.76 1.032 1.032 0 0 0-0.21-0.33z"/>
  <path d="m9 58h46a3 3 0 0 0 3-3v-38a3 3 0 0 0-3-3h-30a3 3 0 0 0-3 3v11h-13a3 3 0 0 0-3 3v24a3 3 0 0 0 3 3zm-1-3v-1h16v1a1 1 0 0 1-1 1h-14a1 1 0 0 1-1-1zm0-21h16v18h-16zm48 16h-30v-19a3 3 0 0 0-2-2.816v-6.184h32zm-16 5a1 1 0 1 1 1-1 1 1 0 0 1-1 1zm-2.22 1h-11.964a2.966 2.966 0 0 0 0.184-1v-3h11.78a2.954 2.954 0 0 0 0 4zm17.22 0h-12.78a2.954 2.954 0 0 0 0-4h13.78v3a1 1 0 0 1-1 1zm-30-40h30a1 1 0 0 1 1 1v3h-32v-3a1 1 0 0 1 1-1zm-16 14h14a1 1 0 0 1 1 1v1h-16v-1a1 1 0 0 1 1-1z"/>
  <path d="m40 19a1.052 1.052 0 0 0 0.71-0.29 1.033 1.033 0 0 0 0.29-0.71 1 1 0 0 0-0.08-0.38 0.933 0.933 0 0 0-0.21-0.33 1.047 1.047 0 0 0-1.42 0 0.933 0.933 0 0 0-0.21 0.33 1 1 0 0 0-0.08 0.38 1.033 1.033 0 0 0 0.29 0.71 1.052 1.052 0 0 0 0.71 0.29z"/>
 </g>
</svg>
