<svg xmlns="http://www.w3.org/2000/svg" viewBox="0 0 512 512"><title>simple-icon-original-rss</title><path d="M389.3,390.69H336.08c0-.32,0-.7,0-1-.23-5.45-.34-10.91-.72-16.37a205.8,205.8,0,0,0-3.46-25.09,217.11,217.11,0,0,0-16.68-50.48A215.09,215.09,0,0,0,205.84,192.16a208.51,208.51,0,0,0-44.69-13.47c-6.67-1.22-13.36-2.13-20.1-2.7-5.71-.49-11.44-.71-17.17-.81-.33,0-.66,0-1.08,0a8.12,8.12,0,0,1-.1-1V121.58c0-.1,0-.22,0-.34h6.75a12.6,12.6,0,0,0,1.32.17c5.48.34,11,.57,16.48,1,7.07.6,14.12,1.59,21.11,2.8A263.88,263.88,0,0,1,296.5,186.4a269.49,269.49,0,0,1,86.86,147.35c1.57,7.25,2.79,14.55,3.71,21.88a255.68,255.68,0,0,1,2.22,33.81Z" style="fill:#f9a21c;fill-rule:evenodd"/><path d="M299.47,390.69H247.73c0-.46-.07-.92-.07-1.4a112.63,112.63,0,0,0-1-14.88,121.26,121.26,0,0,0-4.31-20.29,125.39,125.39,0,0,0-36.46-57.58,123.61,123.61,0,0,0-81.62-32h-1.5V212.24c.4,0,.79-.08,1.19-.06,4.67.19,9.35.35,14,.65a148.37,148.37,0,0,1,18.54,2.57,173.16,173.16,0,0,1,33.95,10.34,175.17,175.17,0,0,1,40.07,23.47,178.81,178.81,0,0,1,64.81,102.93,158.36,158.36,0,0,1,3.48,23.39c.31,4.63.43,9.26.66,13.91C299.5,389.83,299.47,390.24,299.47,390.69Z" style="fill:#f9a21c;fill-rule:evenodd"/><path d="M171.76,388.6a35.73,35.73,0,0,1-12.42,2.16,36.6,36.6,0,0,1-35.73-29.08,35.15,35.15,0,0,1-.89-8,37,37,0,0,1,6.7-21.05,35.62,35.62,0,0,1,24.06-15.27,36.5,36.5,0,0,1,40.76,25.43A37.09,37.09,0,0,1,171.76,388.6Z" style="fill:#f9a21c;fill-rule:evenodd"/></svg>